<svg xmlns="http://www.w3.org/2000/svg" xmlns:xlink="http://www.w3.org/1999/xlink" viewBox="0 0 512 512"><defs><linearGradient id="g" x1="-300%" x2="-200%" y1="0" y2="0"><stop offset="-10%" stop-opacity=".1"/><stop offset="30%" stop-opacity=".07"/><stop offset="70%" stop-opacity=".07"/><stop offset="110%" stop-opacity=".1"/><animate attributeName="x1" from="-300%" to="1200%" dur="3s" repeatCount="indefinite"/><animate attributeName="x2" from="-200%" to="1300%" dur="3s" repeatCount="indefinite"/></linearGradient></defs><path fill="url(#g)" d="M485,169.5l0.1-76l-11.6-11.5L49.5,81.8l0.2,76.8L5.2,159v78.1l43.8,0.1v1.4c0,0-0.1,0.6,0.7,1.3l0.1,112
	c0,0-2.3-4-8.4-4.4c-0.4,0-0.8-0.1-1.3,0c-3.4,0-5.8,1.3-7.6,2.9c-1,0.9-1.6,1.6-1.6,1.6s-2.4,2.9-2.7,6.7l0,54.6
	c0,0-0.4,6.5,6.5,9.6c1.4,0.7,3.1,1.3,5.2,1.4c1.7,0.1,3.3-0.3,4.7-0.9c3.2-1.2,4.9-3.5,4.9-3.5l0.1,14.4l435.5,0.1v-18l16.7-16.6
	V185.6L485,169.5z"/></svg>