<svg xmlns="http://www.w3.org/2000/svg" xmlns:xlink="http://www.w3.org/1999/xlink" viewBox="0 0 512 512"><defs><linearGradient id="g" x1="-300%" x2="-200%" y1="0" y2="0"><stop offset="-10%" stop-opacity=".1"/><stop offset="30%" stop-opacity=".07"/><stop offset="70%" stop-opacity=".07"/><stop offset="110%" stop-opacity=".1"/><animate attributeName="x1" from="-300%" to="1200%" dur="3s" repeatCount="indefinite"/><animate attributeName="x2" from="-200%" to="1300%" dur="3s" repeatCount="indefinite"/></linearGradient></defs><path fill="url(#g)" d="M497.5,381.9c-1.2-1.1-2.7-1.6-3.9-1.8c-0.2,0-0.3-0.1-0.4-0.2c-0.2-0.3-0.4-0.6-0.4-1V263.8
		c0-0.7,0.5-1.3,1.2-1.5c2.2-0.5,6.1-2.2,6.1-7.6c0-2.3-1-3.8-2.3-4.7c-1.3-1.2-3-1.7-4.2-1.9c-0.2,0-0.3-0.1-0.5-0.2
		c-0.2-0.3-0.4-0.6-0.4-1V130.6c0-0.7,0.5-1.3,1.1-1.5c2.3-0.6,5.6-2.4,5.6-7.5c0-2.2-1-3.8-2.3-4.7c-1.2-1-2.5-1.5-3.7-1.8
		c-0.2,0-0.2-0.1-0.4-0.2c-0.2-0.3-0.4-0.6-0.4-1v-13.4c0-0.5-0.3-1.1-0.8-1.3c-0.3-0.3-0.7-0.5-1.2-0.5H18.6c-0.4,0-0.8,0.2-1,0.4
		c-0.6,0.2-1.2,0.8-1.2,1.5v312.4c0,0.8,0.7,1.5,1.5,1.5h0.8c0.1,0,0.2,0,0.2,0h472.1c0.8,0,1.5-0.7,1.5-1.5v-17.4
		c0-0.7,0.5-1.3,1.2-1.5c2.3-0.5,5.8-2.3,5.8-7.5C499.8,384.3,498.8,382.9,497.5,381.9z"/></svg>