<svg xmlns="http://www.w3.org/2000/svg" xmlns:xlink="http://www.w3.org/1999/xlink" viewBox="0 0 512 512"><defs><linearGradient id="g" x1="-300%" x2="-200%" y1="0" y2="0"><stop offset="-10%" stop-opacity=".1"/><stop offset="30%" stop-opacity=".07"/><stop offset="70%" stop-opacity=".07"/><stop offset="110%" stop-opacity=".1"/><animate attributeName="x1" from="-300%" to="1200%" dur="3s" repeatCount="indefinite"/><animate attributeName="x2" from="-200%" to="1300%" dur="3s" repeatCount="indefinite"/></linearGradient></defs><path fill="url(#g)" d="M504.3,211.8c-0.6-1.3-2.2-1.8-3.4-1.1l-10.2,5.2l-0.4-0.8c-0.3-0.6-0.9-1.1-1.5-1.3c0.3-0.7,0.3-1.6-0.1-2.3
		l-0.7-1.3L498,205c1.3-0.6,1.8-2.2,1.1-3.4c-0.6-1.3-2.2-1.8-3.4-1.1l-10.2,5.2l-0.4-0.8c-0.2-0.5-0.6-0.8-1-1.1
		c0.1-0.6,0.1-1.2-0.2-1.8l-0.7-1.3l10.1-5.1c1.3-0.6,1.8-2.2,1.1-3.4c-0.6-1.3-2.2-1.8-3.4-1.1l-10.2,5.2l-0.4-0.8
		c-0.3-0.6-0.9-1.1-1.5-1.3c0.2-0.6,0.1-1.3-0.2-1.9l-0.7-1.3l10.1-5.1c1.3-0.6,1.8-2.2,1.1-3.4c-0.6-1.3-2.2-1.8-3.4-1.1l-10.2,5.2
		l-0.4-0.8c-0.3-0.6-0.9-1.1-1.5-1.3c0.3-0.7,0.3-1.6-0.1-2.3l-0.7-1.3l10.1-5.1c1.3-0.6,1.8-2.2,1.1-3.4s-2.2-1.8-3.4-1.1
		l-10.2,5.2l-0.4-0.8c-0.2-0.5-0.6-0.8-1-1.1c0.1-0.6,0.1-1.2-0.2-1.8l-0.7-1.3l10.1-5.1c1.3-0.6,1.8-2.2,1.1-3.4
		c-0.6-1.3-2.2-1.8-3.4-1.1l-10.2,5.2l-0.4-0.8c-0.3-0.6-0.8-1-1.4-1.2c0.2-0.6,0.1-1.4-0.2-2l-0.7-1.3l10.1-5.1
		c1.3-0.6,1.8-2.2,1.1-3.4c-0.6-1.3-2.2-1.8-3.4-1.1l-10.2,5.2l-0.4-0.8c-0.5-0.9-1.3-1.4-2.3-1.4c0.5-0.8,0.6-1.9,0.2-2.8l-0.7-1.3
		l10.1-5.1c1.3-0.6,1.8-2.2,1.1-3.4c-0.6-1.3-2.2-1.8-3.4-1.1l-10.2,5.2l-0.4-0.8c-0.7-1.3-2.4-1.8-3.7-1.1l-14.6,7.7
		c-0.8,0.4-1.3,1.2-1.4,2.1c-23.3,11-116.8,52.7-193.1,55c-34.5,1.1-80.2,13.6-135.8,37.4c-33,14.1-59.9,28.2-69.4,33.3
		c-0.8-0.7-2-0.8-3-0.3l-14.6,7.7c-1.3,0.7-1.8,2.4-1.1,3.7l0.7,1.3l-10.1,5.1c-1.3,0.6-1.8,2.2-1.1,3.4c0.6,1.3,2.2,1.8,3.4,1.1
		l10.2-5.2l0.4,0.8c0.3,0.6,0.9,1.1,1.5,1.3c-0.3,0.7-0.3,1.6,0.1,2.3l0.7,1.3L13.3,307c-1.3,0.6-1.8,2.2-1.1,3.4
		c0.6,1.3,2.2,1.8,3.4,1.1l10.2-5.2l0.4,0.8c0.2,0.5,0.6,0.8,1,1.1c-0.1,0.6-0.1,1.2,0.2,1.8l0.7,1.3l-10.1,5.1
		c-1.3,0.6-1.8,2.2-1.1,3.4c0.6,1.3,2.2,1.8,3.4,1.1l10.2-5.2l0.4,0.8c0.3,0.6,0.9,1.1,1.5,1.3c-0.2,0.6-0.1,1.3,0.2,1.9l0.7,1.3
		l-10.1,5.1c-1.3,0.6-1.8,2.2-1.1,3.4h0c0.6,1.3,2.2,1.8,3.4,1.1l10.2-5.2l0.4,0.8c0.3,0.6,0.9,1.1,1.5,1.3
		c-0.3,0.7-0.3,1.6,0.1,2.3l0.7,1.3l-10.1,5.1c-1.3,0.6-1.8,2.2-1.1,3.4s2.2,1.8,3.4,1.1l10.2-5.2l0.4,0.8c0.2,0.5,0.6,0.8,1,1.1
		c-0.1,0.6-0.1,1.2,0.2,1.8l0.7,1.3l-10.1,5.1c-1.3,0.6-1.8,2.2-1.1,3.4c0.6,1.3,2.2,1.8,3.4,1.1l10.2-5.2l0.4,0.8
		c0.3,0.6,0.8,1,1.4,1.2c-0.2,0.6-0.1,1.4,0.2,2l0.7,1.3l-10.1,5.1c-1.3,0.6-1.8,2.2-1.1,3.4c0.6,1.3,2.2,1.8,3.4,1.1l10.2-5.2
		l0.4,0.8c0.5,0.9,1.3,1.4,2.3,1.4c-0.5,0.8-0.6,1.9-0.2,2.8l0.7,1.3L44,367c-1.3,0.6-1.8,2.2-1.1,3.4s2.2,1.8,3.4,1.1l10.2-5.2
		l0.4,0.8c0.7,1.3,2.4,1.8,3.7,1.1l14.6-7.7c1.1-0.6,1.6-1.8,1.4-2.9c25.6-13.6,128.7-66.1,198.1-68.2c47-1.4,99.7-17.4,135.7-30.5
		c31.2-11.4,55.6-22.7,64.1-26.7c0.8,1,2.2,1.4,3.4,0.8l14.6-7.7c1.3-0.7,1.8-2.4,1.1-3.7l-0.7-1.3l10.1-5.1
		C504.5,214.6,505,213.1,504.3,211.8z"/></svg>